<svg xmlns:xlink="http://www.w3.org/1999/xlink" width="35" xmlns="http://www.w3.org/2000/svg" height="35" id="screenshot-f627a7a0-791a-80f3-8003-848ee7431af2" viewBox="-1.5 -1.5 35 35" style="-webkit-print-color-adjust: exact;" fill="none" version="1.1"><g id="shape-f627a7a0-791a-80f3-8003-848ee7431af2" width="24" class="feather feather-alert-octagon" height="24" rx="0" ry="0" style="fill: rgb(0, 0, 0);"><g id="shape-f627a7a0-791a-80f3-8003-848ee7431af4"><g class="fills" id="fills-f627a7a0-791a-80f3-8003-848ee7431af4"><path fill="none" stroke-linecap="round" stroke-linejoin="round" rx="0" ry="0" d="M10.480,2.667L21.520,2.667L29.333,10.480L29.333,21.520L21.520,29.333L10.480,29.333L2.667,21.520L2.667,10.480L10.480,2.667ZZ" style="fill: none;"/></g><g id="strokes-f627a7a0-791a-80f3-8003-848ee7431af4" class="strokes"><g class="stroke-shape"><path stroke-linecap="round" stroke-linejoin="round" rx="0" ry="0" d="M10.480,2.667L21.520,2.667L29.333,10.480L29.333,21.520L21.520,29.333L10.480,29.333L2.667,21.520L2.667,10.480L10.480,2.667ZZ" style="fill: none; stroke-width: 3; stroke: rgb(69, 174, 239); stroke-opacity: 1;"/></g></g></g><g id="shape-f627a7a0-791a-80f3-8003-848ee7431af5"><g class="fills" id="fills-f627a7a0-791a-80f3-8003-848ee7431af5"><path fill="none" stroke-linejoin="round" stroke-linecap="round" rx="0" ry="0" d="M16.000,10.667L16.000,16.000" style="fill: none;"/></g><g id="strokes-f627a7a0-791a-80f3-8003-848ee7431af5" class="strokes"><g class="stroke-shape"><path stroke-linejoin="round" stroke-linecap="round" rx="0" ry="0" d="M16.000,10.667L16.000,16.000" style="fill: none; stroke-width: 3; stroke: rgb(69, 174, 239); stroke-opacity: 1;"/></g></g></g><g id="shape-f627a7a0-791a-80f3-8003-848ee7431af6"><g class="fills" id="fills-f627a7a0-791a-80f3-8003-848ee7431af6"><path fill="none" stroke-linejoin="round" stroke-linecap="round" rx="0" ry="0" d="M16.000,21.333L16.000,21.333Z" style="fill: none;"/></g><g id="strokes-f627a7a0-791a-80f3-8003-848ee7431af6" class="strokes"><g class="stroke-shape"><path stroke-linejoin="round" stroke-linecap="round" rx="0" ry="0" d="M16.000,21.333L16.000,21.333Z" style="fill: none; stroke-width: 3; stroke: rgb(69, 174, 239); stroke-opacity: 1;"/></g></g></g></g></svg>