<svg xmlns:xlink="http://www.w3.org/1999/xlink" width="35" xmlns="http://www.w3.org/2000/svg" height="35" id="screenshot-f627a7a0-791a-80f3-8003-848edb6ec95c" viewBox="-1.5 -1.5 35 35" style="-webkit-print-color-adjust: exact;" fill="none" version="1.1"><g id="shape-f627a7a0-791a-80f3-8003-848edb6ec95c" width="24" class="feather feather-alert-triangle" height="24" rx="0" ry="0" style="fill: rgb(0, 0, 0);"><g id="shape-f627a7a0-791a-80f3-8003-848edb6ec95e"><g class="fills" id="fills-f627a7a0-791a-80f3-8003-848edb6ec95e"><path fill="none" stroke-linecap="round" stroke-linejoin="round" rx="0" ry="0" d="M13.720,5.147L2.427,24.000C1.953,24.821,1.950,25.831,2.419,26.654C2.888,27.477,3.759,27.990,4.707,28.000L27.293,28.000C28.241,27.990,29.112,27.477,29.581,26.654C30.050,25.831,30.047,24.821,29.573,24.000L18.280,5.147C17.797,4.350,16.932,3.863,16.000,3.863C15.068,3.863,14.203,4.350,13.720,5.147ZZ" style="fill: none;"/></g><g id="strokes-f627a7a0-791a-80f3-8003-848edb6ec95e" class="strokes"><g class="stroke-shape"><path stroke-linecap="round" stroke-linejoin="round" rx="0" ry="0" d="M13.720,5.147L2.427,24.000C1.953,24.821,1.950,25.831,2.419,26.654C2.888,27.477,3.759,27.990,4.707,28.000L27.293,28.000C28.241,27.990,29.112,27.477,29.581,26.654C30.050,25.831,30.047,24.821,29.573,24.000L18.280,5.147C17.797,4.350,16.932,3.863,16.000,3.863C15.068,3.863,14.203,4.350,13.720,5.147ZZ" style="fill: none; stroke-width: 3; stroke: rgb(3, 93, 125); stroke-opacity: 1;"/></g></g></g><g id="shape-f627a7a0-791a-80f3-8003-848edb6ec95f"><g class="fills" id="fills-f627a7a0-791a-80f3-8003-848edb6ec95f"><path fill="none" stroke-linejoin="round" stroke-linecap="round" rx="0" ry="0" d="M16.000,12.000L16.000,17.333" style="fill: none;"/></g><g id="strokes-f627a7a0-791a-80f3-8003-848edb6ec95f" class="strokes"><g class="stroke-shape"><path stroke-linejoin="round" stroke-linecap="round" rx="0" ry="0" d="M16.000,12.000L16.000,17.333" style="fill: none; stroke-width: 3; stroke: rgb(3, 93, 125); stroke-opacity: 1;"/></g></g></g><g id="shape-f627a7a0-791a-80f3-8003-848edb6ec960"><g class="fills" id="fills-f627a7a0-791a-80f3-8003-848edb6ec960"><path fill="none" stroke-linejoin="round" stroke-linecap="round" rx="0" ry="0" d="M16.000,22.667L16.000,22.667Z" style="fill: none;"/></g><g id="strokes-f627a7a0-791a-80f3-8003-848edb6ec960" class="strokes"><g class="stroke-shape"><path stroke-linejoin="round" stroke-linecap="round" rx="0" ry="0" d="M16.000,22.667L16.000,22.667Z" style="fill: none; stroke-width: 3; stroke: rgb(3, 93, 125); stroke-opacity: 1;"/></g></g></g></g></svg>