<svg xmlns:xlink="http://www.w3.org/1999/xlink" width="35" xmlns="http://www.w3.org/2000/svg" height="35" id="screenshot-2720ca7d-91ed-8085-8003-848d72ddcf2f" viewBox="-1.5 -1.5 35 35" style="-webkit-print-color-adjust: exact;" fill="none" version="1.1"><g id="shape-2720ca7d-91ed-8085-8003-848d72ddcf2f" width="24" class="feather feather-camera" height="24" rx="0" ry="0" style="fill: rgb(0, 0, 0);"><g id="shape-2720ca7d-91ed-8085-8003-848d72ddcf31"><g class="fills" id="fills-2720ca7d-91ed-8085-8003-848d72ddcf31"><path fill="none" stroke-linecap="round" stroke-linejoin="round" rx="0" ry="0" d="M30.667,25.333C30.667,26.806,29.473,28.000,28.000,28.000L4.000,28.000C2.527,28.000,1.333,26.806,1.333,25.333L1.333,10.667C1.333,9.194,2.527,8.000,4.000,8.000L9.333,8.000L12.000,4.000L20.000,4.000L22.667,8.000L28.000,8.000C29.473,8.000,30.667,9.194,30.667,10.667Z" style="fill: none;"/></g><g id="strokes-2720ca7d-91ed-8085-8003-848d72ddcf31" class="strokes"><g class="stroke-shape"><path stroke-linecap="round" stroke-linejoin="round" rx="0" ry="0" d="M30.667,25.333C30.667,26.806,29.473,28.000,28.000,28.000L4.000,28.000C2.527,28.000,1.333,26.806,1.333,25.333L1.333,10.667C1.333,9.194,2.527,8.000,4.000,8.000L9.333,8.000L12.000,4.000L20.000,4.000L22.667,8.000L28.000,8.000C29.473,8.000,30.667,9.194,30.667,10.667Z" style="fill: none; stroke-width: 3; stroke: rgb(126, 63, 152); stroke-opacity: 1;"/></g></g></g><g id="shape-2720ca7d-91ed-8085-8003-848d72ddcf32"><g class="fills" id="fills-2720ca7d-91ed-8085-8003-848d72ddcf32"><ellipse cy="17.333333333333258" stroke-linejoin="round" transform="matrix(1.000000, 0.000000, 0.000000, 1.000000, 0.000000, 0.000000)" style="fill: none;" ry="5.3333333333332575" fill="none" stroke-linecap="round" rx="5.333333333333485" cx="15.999999999999545"/></g><g id="strokes-2720ca7d-91ed-8085-8003-848d72ddcf32" class="strokes"><g class="stroke-shape"><ellipse stroke-linecap="round" stroke-linejoin="round" rx="5.333333333333485" ry="5.3333333333332575" cx="15.999999999999545" cy="17.333333333333258" transform="matrix(1.000000, 0.000000, 0.000000, 1.000000, 0.000000, 0.000000)" style="fill: none; stroke-width: 3; stroke: rgb(126, 63, 152); stroke-opacity: 1;"/></g></g></g></g></svg>