<svg xmlns:xlink="http://www.w3.org/1999/xlink" width="35" xmlns="http://www.w3.org/2000/svg" height="35" id="screenshot-f627a7a0-791a-80f3-8003-848edb6e8717" viewBox="-1.5 -1.5 35 35" style="-webkit-print-color-adjust: exact;" fill="none" version="1.1"><g id="shape-f627a7a0-791a-80f3-8003-848edb6e8717" width="24" class="feather feather-copy" height="24" rx="0" ry="0" style="fill: rgb(0, 0, 0);"><g id="shape-f627a7a0-791a-80f3-8003-848edb6e8719"><g class="fills" id="fills-f627a7a0-791a-80f3-8003-848edb6e8719"><rect width="17.33333333333303" height="17.33333333333303" x="12" stroke-linejoin="round" transform="matrix(1.000000, 0.000000, 0.000000, 1.000000, 0.000000, 0.000000)" style="fill: none;" ry="2" fill="none" stroke-linecap="round" rx="2" y="12"/></g><g id="strokes-f627a7a0-791a-80f3-8003-848edb6e8719" class="strokes"><g class="stroke-shape"><rect width="17.33333333333303" height="17.33333333333303" x="12" stroke-linejoin="round" transform="matrix(1.000000, 0.000000, 0.000000, 1.000000, 0.000000, 0.000000)" style="fill: none; stroke-width: 3; stroke: rgb(3, 93, 125); stroke-opacity: 1;" ry="2" stroke-linecap="round" rx="2" y="12"/></g></g></g><g id="shape-f627a7a0-791a-80f3-8003-848edb6e871a"><g class="fills" id="fills-f627a7a0-791a-80f3-8003-848edb6e871a"><path fill="none" stroke-linecap="round" stroke-linejoin="round" rx="0" ry="0" d="M6.667,20.000L5.333,20.000C3.861,20.000,2.667,18.806,2.667,17.333L2.667,5.333C2.667,3.861,3.861,2.667,5.333,2.667L17.333,2.667C18.806,2.667,20.000,3.861,20.000,5.333L20.000,6.667" style="fill: none;"/></g><g id="strokes-f627a7a0-791a-80f3-8003-848edb6e871a" class="strokes"><g class="stroke-shape"><path stroke-linecap="round" stroke-linejoin="round" rx="0" ry="0" d="M6.667,20.000L5.333,20.000C3.861,20.000,2.667,18.806,2.667,17.333L2.667,5.333C2.667,3.861,3.861,2.667,5.333,2.667L17.333,2.667C18.806,2.667,20.000,3.861,20.000,5.333L20.000,6.667" style="fill: none; stroke-width: 3; stroke: rgb(3, 93, 125); stroke-opacity: 1;"/></g></g></g></g></svg>