<svg xmlns:xlink="http://www.w3.org/1999/xlink" width="35" xmlns="http://www.w3.org/2000/svg" height="35" id="screenshot-f627a7a0-791a-80f3-8003-848ee742e12f" viewBox="-1.5 -1.5 35 35" style="-webkit-print-color-adjust: exact;" fill="none" version="1.1"><g id="shape-f627a7a0-791a-80f3-8003-848ee742e12f" width="24" class="feather feather-download" height="24" rx="0" ry="0" style="fill: rgb(0, 0, 0);"><g id="shape-f627a7a0-791a-80f3-8003-848ee742e131"><g class="fills" id="fills-f627a7a0-791a-80f3-8003-848ee742e131"><path fill="none" stroke-linecap="round" stroke-linejoin="round" rx="0" ry="0" d="M28.000,20.000L28.000,25.333C28.000,26.806,26.806,28.000,25.333,28.000L6.667,28.000C5.194,28.000,4.000,26.806,4.000,25.333L4.000,20.000" style="fill: none;"/></g><g id="strokes-f627a7a0-791a-80f3-8003-848ee742e131" class="strokes"><g class="stroke-shape"><path stroke-linecap="round" stroke-linejoin="round" rx="0" ry="0" d="M28.000,20.000L28.000,25.333C28.000,26.806,26.806,28.000,25.333,28.000L6.667,28.000C5.194,28.000,4.000,26.806,4.000,25.333L4.000,20.000" style="fill: none; stroke-width: 3; stroke: rgb(69, 174, 239); stroke-opacity: 1;"/></g></g></g><g id="shape-f627a7a0-791a-80f3-8003-848ee742e132"><g class="fills" id="fills-f627a7a0-791a-80f3-8003-848ee742e132"><path fill="none" stroke-linecap="round" stroke-linejoin="round" rx="0" ry="0" d="M9.333,13.333L16.000,20.000L22.667,13.333" style="fill: none;"/></g><g id="strokes-f627a7a0-791a-80f3-8003-848ee742e132" class="strokes"><g class="stroke-shape"><path stroke-linecap="round" stroke-linejoin="round" rx="0" ry="0" d="M9.333,13.333L16.000,20.000L22.667,13.333" style="fill: none; stroke-width: 3; stroke: rgb(69, 174, 239); stroke-opacity: 1;"/></g></g></g><g id="shape-f627a7a0-791a-80f3-8003-848ee742e133"><g class="fills" id="fills-f627a7a0-791a-80f3-8003-848ee742e133"><path fill="none" stroke-linejoin="round" stroke-linecap="round" rx="0" ry="0" d="M16.000,20.000L16.000,4.000" style="fill: none;"/></g><g id="strokes-f627a7a0-791a-80f3-8003-848ee742e133" class="strokes"><g class="stroke-shape"><path stroke-linejoin="round" stroke-linecap="round" rx="0" ry="0" d="M16.000,20.000L16.000,4.000" style="fill: none; stroke-width: 3; stroke: rgb(69, 174, 239); stroke-opacity: 1;"/></g></g></g></g></svg>