<svg xmlns:xlink="http://www.w3.org/1999/xlink" width="35" xmlns="http://www.w3.org/2000/svg" height="35" id="screenshot-d7868fd8-6350-80a2-8003-8392e33710e9" viewBox="-1.5 -1.5 35 35" style="-webkit-print-color-adjust: exact;" fill="none" version="1.1"><g id="shape-d7868fd8-6350-80a2-8003-8392e33710e9" width="24" class="feather feather-edit" height="24" rx="0" ry="0" style="fill: rgb(0, 0, 0);"><g id="shape-d7868fd8-6350-80a2-8003-8392e33710eb"><g class="fills" id="fills-d7868fd8-6350-80a2-8003-8392e33710eb"><path fill="none" stroke-linecap="round" stroke-linejoin="round" rx="0" ry="0" d="M14.667,5.333L5.333,5.333C3.861,5.333,2.667,6.527,2.667,8.000L2.667,26.667C2.667,28.139,3.861,29.333,5.333,29.333L24.000,29.333C25.473,29.333,26.667,28.139,26.667,26.667L26.667,17.333" style="fill: none;"/></g><g id="strokes-d7868fd8-6350-80a2-8003-8392e33710eb" class="strokes"><g class="stroke-shape"><path stroke-linecap="round" stroke-linejoin="round" rx="0" ry="0" d="M14.667,5.333L5.333,5.333C3.861,5.333,2.667,6.527,2.667,8.000L2.667,26.667C2.667,28.139,3.861,29.333,5.333,29.333L24.000,29.333C25.473,29.333,26.667,28.139,26.667,26.667L26.667,17.333" style="fill: none; stroke-width: 3; stroke: rgb(57, 20, 74); stroke-opacity: 1;"/></g></g></g><g id="shape-d7868fd8-6350-80a2-8003-8392e33710ec"><g class="fills" id="fills-d7868fd8-6350-80a2-8003-8392e33710ec"><path fill="none" stroke-linecap="round" stroke-linejoin="round" rx="0" ry="0" d="M24.667,3.333C25.771,2.229,27.562,2.229,28.667,3.333C29.771,4.438,29.771,6.229,28.667,7.333L16.000,20.000L10.667,21.333L12.000,16.000L24.667,3.333ZZ" style="fill: none;"/></g><g id="strokes-d7868fd8-6350-80a2-8003-8392e33710ec" class="strokes"><g class="stroke-shape"><path stroke-linecap="round" stroke-linejoin="round" rx="0" ry="0" d="M24.667,3.333C25.771,2.229,27.562,2.229,28.667,3.333C29.771,4.438,29.771,6.229,28.667,7.333L16.000,20.000L10.667,21.333L12.000,16.000L24.667,3.333ZZ" style="fill: none; stroke-width: 3; stroke: rgb(57, 20, 74); stroke-opacity: 1;"/></g></g></g></g></svg>