<svg xmlns:xlink="http://www.w3.org/1999/xlink" width="35" xmlns="http://www.w3.org/2000/svg" height="35" id="screenshot-2720ca7d-91ed-8085-8003-848d877f8cfd" viewBox="-1.5 -1.5 35 35" style="-webkit-print-color-adjust: exact;" fill="none" version="1.1"><g id="shape-2720ca7d-91ed-8085-8003-848d877f8cfd" width="24" class="feather feather-edit" height="24" rx="0" ry="0" style="fill: rgb(0, 0, 0);"><g id="shape-2720ca7d-91ed-8085-8003-848d877f8cff"><g class="fills" id="fills-2720ca7d-91ed-8085-8003-848d877f8cff"><path fill="none" stroke-linecap="round" stroke-linejoin="round" rx="0" ry="0" d="M14.667,5.333L5.333,5.333C3.861,5.333,2.667,6.527,2.667,8.000L2.667,26.667C2.667,28.139,3.861,29.333,5.333,29.333L24.000,29.333C25.473,29.333,26.667,28.139,26.667,26.667L26.667,17.333" style="fill: none;"/></g><g id="strokes-2720ca7d-91ed-8085-8003-848d877f8cff" class="strokes"><g class="stroke-shape"><path stroke-linecap="round" stroke-linejoin="round" rx="0" ry="0" d="M14.667,5.333L5.333,5.333C3.861,5.333,2.667,6.527,2.667,8.000L2.667,26.667C2.667,28.139,3.861,29.333,5.333,29.333L24.000,29.333C25.473,29.333,26.667,28.139,26.667,26.667L26.667,17.333" style="fill: none; stroke-width: 3; stroke: rgb(255, 255, 255); stroke-opacity: 1;"/></g></g></g><g id="shape-2720ca7d-91ed-8085-8003-848d877f8d00"><g class="fills" id="fills-2720ca7d-91ed-8085-8003-848d877f8d00"><path fill="none" stroke-linecap="round" stroke-linejoin="round" rx="0" ry="0" d="M24.667,3.333C25.771,2.229,27.562,2.229,28.667,3.333C29.771,4.438,29.771,6.229,28.667,7.333L16.000,20.000L10.667,21.333L12.000,16.000L24.667,3.333ZZ" style="fill: none;"/></g><g id="strokes-2720ca7d-91ed-8085-8003-848d877f8d00" class="strokes"><g class="stroke-shape"><path stroke-linecap="round" stroke-linejoin="round" rx="0" ry="0" d="M24.667,3.333C25.771,2.229,27.562,2.229,28.667,3.333C29.771,4.438,29.771,6.229,28.667,7.333L16.000,20.000L10.667,21.333L12.000,16.000L24.667,3.333ZZ" style="fill: none; stroke-width: 3; stroke: rgb(255, 255, 255); stroke-opacity: 1;"/></g></g></g></g></svg>