<svg xmlns:xlink="http://www.w3.org/1999/xlink" width="121" xmlns="http://www.w3.org/2000/svg" height="68" id="screenshot-2720ca7d-91ed-8085-8003-848d877f8d1b" viewBox="0 0 121 68" style="-webkit-print-color-adjust: exact;" fill="none" version="1.1"><g id="shape-2720ca7d-91ed-8085-8003-848d877f8d1b" clip-path="url(#rumext-id-94-_clip1)" rx="0" ry="0" style="fill: rgb(0, 0, 0);"><defs><clipPath id="rumext-id-94-_clip1" class="svg-def" transform="matrix(1.493079, 0.000000, 0.000000, 1.491031, -0.045681, -0.000035)"><rect id="Artboard11" x="0" y="0" width="81.071" height="45.638"/></clipPath></defs><g id="shape-2720ca7d-91ed-8085-8003-848d877f8d1c"><g class="fills" id="fills-2720ca7d-91ed-8085-8003-848d877f8d1c"><path rx="0" ry="0" d="M76.209,37.323C63.785,31.570,48.342,26.952,34.925,32.233C23.927,36.562,13.692,52.562,23.175,63.252C-21.976,63.968,2.749,6.355,63.667,26.394C48.975,9.322,29.266,4.208,33.208,17.806C29.399,17.347,25.235,15.957,22.945,12.662C19.569,7.804,23.085,2.242,28.165,0.672C31.415,-0.333,34.954,-0.112,38.220,0.683C49.326,3.383,57.666,11.388,65.569,19.116C70.289,23.730,75.200,29.554,80.867,33.193C122.435,-5.812,140.171,64.891,92.334,46.791C86.139,52.708,80.527,58.873,72.951,63.130C69.290,65.186,65.414,66.931,61.259,67.641C57.081,68.355,52.781,68.042,48.856,66.367C43.030,63.883,37.362,58.843,36.179,52.372C34.871,45.214,40.478,35.498,48.745,37.498C53.205,38.576,56.273,42.590,58.292,46.434C55.361,45.506,52.670,45.329,49.693,46.213C48.615,46.534,47.607,47.117,46.718,47.807C45.929,48.417,45.241,49.188,44.742,50.049C42.728,53.534,44.612,57.552,48.617,58.243C50.199,58.515,52.493,57.864,53.835,57.060C56.145,55.677,58.425,54.218,60.532,52.541C63.215,50.404,65.707,48.032,68.169,45.643C70.935,42.957,73.589,40.153,76.209,37.323ZZM97.351,41.782C100.218,43.213,110.680,45.438,112.043,39.992C112.401,38.561,112.383,34.593,108.101,34.983C104.159,35.340,100.537,39.046,97.351,41.782ZZ" style="fill-rule: evenodd; clip-rule: evenodd; stroke-linejoin: round; stroke-miterlimit: 2; fill: rgb(255, 255, 255); fill-opacity: 1;"/></g></g></g></svg>