<svg xmlns:xlink="http://www.w3.org/1999/xlink" width="71" xmlns="http://www.w3.org/2000/svg" height="301" id="screenshot-d2803367-c2e0-80ed-8003-849ea08c3ec8" viewBox="0 0 71 301" style="-webkit-print-color-adjust: exact;" fill="none" version="1.1"><g id="shape-d2803367-c2e0-80ed-8003-849ea08c3ec8" width="71" xmlns:xlink="http://www.w3.org/1999/xlink" version="1.1" height="304.457" rx="0" ry="0" style="fill: rgb(0, 0, 0);"><g id="shape-d2803367-c2e0-80ed-8003-849ea08c3eca" rx="0" ry="0" style="fill: rgb(0, 0, 0);"><g id="shape-d2803367-c2e0-80ed-8003-849ea08c3ecb" class="fills" rx="0" ry="0" style="fill: rgb(0, 0, 0);"><g id="shape-d2803367-c2e0-80ed-8003-849ea08c3ecc"><g class="fills" id="fills-d2803367-c2e0-80ed-8003-849ea08c3ecc"><path rx="0" ry="0" d="M47.550,257.028C45.742,257.841,44.379,261.380,44.379,265.617C44.379,269.854,45.742,273.393,47.550,274.206L47.550,274.382L35.500,274.382L35.500,221.794L47.550,221.794L47.550,221.969C45.742,222.782,44.379,226.321,44.379,230.558C44.379,234.796,45.742,238.334,47.550,239.147L47.550,239.499C45.742,240.312,44.379,243.851,44.379,248.088C44.379,252.325,45.742,255.864,47.550,256.677M23.450,256.677C25.258,255.864,26.621,252.325,26.621,248.088C26.621,243.851,25.258,240.312,23.450,239.499L23.450,239.147L23.450,221.969L23.450,221.794L35.500,221.794L35.500,274.382L23.450,274.382L23.450,274.206C25.258,273.393,26.621,269.854,26.621,265.617C26.621,261.380,25.258,257.841,23.450,257.028L23.450,256.677ZZM23.450,239.147C25.258,238.334,26.621,234.796,26.621,230.558C26.621,226.321,25.258,222.782,23.450,221.969M35.500,271.135C45.746,271.135,54.064,276.808,54.064,283.795C54.064,290.783,45.746,296.455,35.500,296.455C25.254,296.455,16.936,290.783,16.936,283.795C16.936,276.808,25.254,271.135,35.500,271.135ZZM71.000,193.228L71.000,208.160C71.000,216.401,55.093,223.092,35.500,223.092C15.907,223.092,0.000,216.401,0.000,208.160L0.000,193.228M28.009,296.780C28.009,294.451,29.900,292.560,32.229,292.560L38.771,292.560C41.100,292.560,42.991,294.451,42.991,296.780L42.991,296.780C42.991,299.109,41.100,301.000,38.771,301.000L32.229,301.000C29.900,301.000,28.009,299.109,28.009,296.780ZZL28.009,296.780ZZM36.210,0.585C38.793,6.749,45.418,23.964,52.305,53.113C58.658,80.003,58.316,94.883,58.275,96.124C58.273,96.164,58.272,96.190,58.272,96.202C58.166,96.568,54.203,110.411,54.203,139.893C54.203,174.702,58.273,193.228,58.273,193.228L12.727,193.228C12.727,193.228,12.727,193.228,12.727,193.228C12.727,193.228,16.797,179.412,16.797,149.537C16.797,114.728,12.727,96.202,12.727,96.202C12.727,96.202,12.727,96.202,12.727,96.202L21.748,96.202L12.726,96.200C12.726,96.200,12.507,81.621,18.923,53.429C25.778,23.302,32.101,5.662,34.276,0.000L34.276,96.202L34.276,193.013L36.210,193.013L36.210,96.202L36.210,0.585ZZM21.748,96.202L34.276,96.202M36.210,96.202L58.272,96.202L58.273,96.202C58.273,96.202,58.273,96.202,58.273,96.202C58.273,96.202,58.273,96.202,58.273,96.202C58.273,96.202,58.272,96.204,58.271,96.209" style="-webkit-print-color-adjust: exact; fill: rgb(33, 94, 158); fill-opacity: 1;"/></g></g></g></g></g></svg>