<svg xmlns:xlink="http://www.w3.org/1999/xlink" width="264" xmlns="http://www.w3.org/2000/svg" height="266" id="screenshot-2720ca7d-91ed-8085-8003-848d72ddbbe9" viewBox="0 0 264 266" style="-webkit-print-color-adjust: exact;" fill="none" version="1.1"><g id="shape-2720ca7d-91ed-8085-8003-848d72ddbbe9" rx="0" ry="0" style="fill: rgb(0, 0, 0);"><g id="shape-2720ca7d-91ed-8085-8003-848d72ddbbea"><g class="fills" id="fills-2720ca7d-91ed-8085-8003-848d72ddbbea"><path rx="0" ry="0" d="M74.530,1.025C73.736,1.549,69.324,3.746,64.713,5.902C60.102,8.078,55.425,10.359,54.300,10.987C50.042,13.394,47.395,15.675,46.159,17.998C45.608,19.023,45.519,19.442,45.519,20.865C45.541,21.995,45.652,22.811,45.917,23.355L46.292,24.171L48.674,24.046C52.314,23.858,54.476,23.020,57.388,20.656C59.418,19.002,60.389,17.914,64.823,12.389C69.456,6.613,70.250,5.713,73.493,2.595C74.949,1.193,76.096,0.042,76.052,0.063C76.008,0.063,75.324,0.502,74.530,1.025ZZ" style="fill: rgb(126, 63, 152); fill-opacity: 1;"/></g></g><g id="shape-2720ca7d-91ed-8085-8003-848d72ddbbeb"><g class="fills" id="fills-2720ca7d-91ed-8085-8003-848d72ddbbeb"><path rx="0" ry="0" d="M190.507,2.574C193.772,5.734,194.610,6.676,199.177,12.389C203.589,17.893,204.582,19.002,206.612,20.656C209.502,23.000,211.686,23.858,215.326,24.046L217.664,24.171L218.061,23.460C218.348,22.937,218.459,22.267,218.481,20.970C218.481,19.442,218.392,19.023,217.885,18.019C216.649,15.633,213.715,13.184,209.038,10.631C207.847,9.983,203.280,7.764,198.890,5.713C194.500,3.641,190.220,1.528,189.360,0.984L187.815,0.000L190.507,2.574ZZ" style="fill: rgb(126, 63, 152); fill-opacity: 1;"/></g></g><g id="shape-2720ca7d-91ed-8085-8003-848d72ddbbec"><g class="fills" id="fills-2720ca7d-91ed-8085-8003-848d72ddbbec"><path rx="0" ry="0" d="M41.195,13.498C33.849,19.714,30.407,26.139,31.599,31.433C31.974,33.087,33.319,36.037,33.717,36.037C34.158,36.037,38.305,31.936,39.210,30.617C40.600,28.545,40.975,27.101,41.350,22.434C41.681,18.165,42.012,15.989,42.762,13.561C43.004,12.766,43.159,12.075,43.115,12.033C43.071,11.971,42.188,12.640,41.195,13.498ZZ" style="fill: rgb(126, 63, 152); fill-opacity: 1;"/></g></g><g id="shape-2720ca7d-91ed-8085-8003-848d72ddbbed"><g class="fills" id="fills-2720ca7d-91ed-8085-8003-848d72ddbbed"><path rx="0" ry="0" d="M220.885,12.326C221.944,15.675,222.253,17.475,222.650,22.434C223.025,27.101,223.400,28.566,224.790,30.617C225.651,31.894,229.864,36.037,230.283,36.037C230.548,36.037,231.651,33.966,232.181,32.480C232.732,30.931,232.732,27.625,232.181,25.888C231.651,24.151,229.930,21.116,228.386,19.149C227.040,17.475,222.032,12.578,221.216,12.159C220.819,11.971,220.775,11.992,220.885,12.326ZZ" style="fill: rgb(126, 63, 152); fill-opacity: 1;"/></g></g><g id="shape-2720ca7d-91ed-8085-8003-848d72ddbbee"><g class="fills" id="fills-2720ca7d-91ed-8085-8003-848d72ddbbee"><path rx="0" ry="0" d="M27.870,28.022C19.531,37.900,17.590,46.229,22.223,52.403C23.679,54.349,23.458,54.286,24.693,52.989C26.238,51.377,28.135,48.636,28.885,46.920C29.944,44.534,30.098,42.797,29.679,38.423C29.238,34.133,29.194,30.094,29.547,27.771C29.679,26.892,29.723,26.118,29.679,26.076C29.635,26.034,28.819,26.913,27.870,28.022ZZ" style="fill: rgb(126, 63, 152); fill-opacity: 1;"/></g></g><g id="shape-2720ca7d-91ed-8085-8003-848d72ddbbef"><g class="fills" id="fills-2720ca7d-91ed-8085-8003-848d72ddbbef"><path rx="0" ry="0" d="M234.343,26.620C234.740,28.776,234.740,33.924,234.365,38.109C233.901,42.985,234.012,44.367,235.049,46.815C235.909,48.824,239.682,53.993,240.321,54.014C240.674,54.035,242.219,51.943,242.969,50.373C245.881,44.409,243.653,36.937,236.372,28.294C234.232,25.783,234.166,25.720,234.343,26.620ZZ" style="fill: rgb(126, 63, 152); fill-opacity: 1;"/></g></g><g id="shape-2720ca7d-91ed-8085-8003-848d72ddbbf0"><g class="fills" id="fills-2720ca7d-91ed-8085-8003-848d72ddbbf0"><path rx="0" ry="0" d="M57.433,27.436C57.300,27.541,56.616,27.834,55.888,28.085C54.719,28.524,54.035,28.587,50.042,28.692L45.519,28.817L43.865,29.571C42.960,29.989,41.659,30.806,40.953,31.350C39.695,32.396,37.776,34.342,37.930,34.426C38.305,34.677,40.048,35.263,41.217,35.535C42.232,35.786,43.225,35.849,44.637,35.786C46.909,35.661,48.476,35.159,50.594,33.840C51.939,33.003,58.271,27.269,57.874,27.248C57.741,27.248,57.543,27.332,57.433,27.436ZZ" style="fill: rgb(126, 63, 152); fill-opacity: 1;"/></g></g><g id="shape-2720ca7d-91ed-8085-8003-848d72ddbbf1"><g class="fills" id="fills-2720ca7d-91ed-8085-8003-848d72ddbbf1"><path rx="0" ry="0" d="M208.994,30.136C213.605,34.447,215.723,35.598,219.363,35.786C220.775,35.849,221.768,35.786,222.783,35.535C223.952,35.263,225.695,34.677,226.070,34.447C226.224,34.321,224.503,32.563,223.158,31.454C222.408,30.847,221.040,29.989,220.135,29.571L218.481,28.817L213.958,28.692C209.965,28.587,209.281,28.524,208.112,28.085C207.384,27.834,206.700,27.541,206.589,27.436C206.457,27.332,206.259,27.248,206.148,27.248C206.016,27.248,207.295,28.545,208.994,30.136ZZ" style="fill: rgb(126, 63, 152); fill-opacity: 1;"/></g></g><g id="shape-2720ca7d-91ed-8085-8003-848d72ddbbf2"><g class="fills" id="fills-2720ca7d-91ed-8085-8003-848d72ddbbf2"><path rx="0" ry="0" d="M48.056,40.788C46.975,41.521,44.416,42.630,43.093,42.923C42.497,43.048,40.887,43.299,39.519,43.467C35.393,43.969,33.849,44.681,31.290,47.276C29.746,48.803,27.914,51.252,28.091,51.524C28.157,51.608,29.128,51.859,30.231,52.047C36.232,53.094,40.556,51.064,45.431,44.932C47.020,42.923,49.027,40.202,48.895,40.223C48.851,40.244,48.476,40.474,48.056,40.788ZZ" style="fill: rgb(126, 63, 152); fill-opacity: 1;"/></g></g><g id="shape-2720ca7d-91ed-8085-8003-848d72ddbbf3"><g class="fills" id="fills-2720ca7d-91ed-8085-8003-848d72ddbbf3"><path rx="0" ry="0" d="M215.966,41.500C222.452,50.624,226.886,53.261,233.769,52.047C234.872,51.859,235.843,51.608,235.909,51.524C236.086,51.252,234.254,48.824,232.710,47.255C230.195,44.722,228.541,43.969,224.459,43.467C220.312,42.944,218.326,42.337,216.032,40.851L214.995,40.160L215.966,41.500ZZ" style="fill: rgb(126, 63, 152); fill-opacity: 1;"/></g></g><g id="shape-2720ca7d-91ed-8085-8003-848d72ddbbf4"><g class="fills" id="fills-2720ca7d-91ed-8085-8003-848d72ddbbf4"><path rx="0" ry="0" d="M15.913,45.978C14.104,49.034,12.692,51.963,11.677,54.768C10.332,58.493,10.023,60.042,10.001,63.348C10.001,66.592,10.287,67.973,11.457,70.275C12.207,71.782,14.303,74.356,15.516,75.235C16.288,75.821,16.332,75.821,16.619,75.444C17.391,74.461,19.421,70.464,20.083,68.685C20.744,66.843,20.789,66.508,20.811,63.976C20.811,61.318,20.789,61.172,19.553,56.861C18.097,51.775,17.634,49.515,17.435,46.125L17.281,43.676L15.913,45.978ZZ" style="fill: rgb(126, 63, 152); fill-opacity: 1;"/></g></g><g id="shape-2720ca7d-91ed-8085-8003-848d72ddbbf5"><g class="fills" id="fills-2720ca7d-91ed-8085-8003-848d72ddbbf5"><path rx="0" ry="0" d="M246.521,46.439C246.366,49.661,245.903,51.963,244.359,57.258C243.211,61.151,243.189,61.318,243.211,63.976C243.211,66.487,243.278,66.843,243.939,68.685C244.579,70.464,246.609,74.440,247.381,75.465C247.668,75.821,247.734,75.800,248.727,75.047C250.977,73.289,252.874,70.296,253.691,67.220C254.110,65.692,254.154,65.064,254.044,62.720C253.867,58.723,252.808,55.103,250.315,50.038C249.389,48.155,246.896,43.781,246.741,43.781C246.697,43.781,246.609,44.974,246.521,46.439ZZ" style="fill: rgb(126, 63, 152); fill-opacity: 1;"/></g></g><g id="shape-2720ca7d-91ed-8085-8003-848d72ddbbf6"><g class="fills" id="fills-2720ca7d-91ed-8085-8003-848d72ddbbf6"><path rx="0" ry="0" d="M40.092,56.881C38.151,58.828,35.812,60.000,31.621,61.193C27.539,62.365,25.466,63.746,23.436,66.613C22.620,67.806,20.480,71.740,20.480,72.075C20.480,72.347,23.414,72.431,25.113,72.221C30.540,71.594,34.025,69.061,37.511,63.243C38.349,61.841,41.041,56.316,40.953,56.212C40.887,56.170,40.511,56.463,40.092,56.881ZZ" style="fill: rgb(126, 63, 152); fill-opacity: 1;"/></g></g><g id="shape-2720ca7d-91ed-8085-8003-848d72ddbbf7"><g class="fills" id="fills-2720ca7d-91ed-8085-8003-848d72ddbbf7"><path rx="0" ry="0" d="M223.003,56.233C223.003,56.442,225.827,62.113,226.489,63.243C229.975,69.061,233.460,71.594,238.887,72.221C240.586,72.431,243.520,72.347,243.520,72.075C243.520,71.740,241.380,67.806,240.564,66.613C238.534,63.746,236.461,62.365,232.379,61.193C228.143,60.000,226.467,59.163,224.172,57.112C223.533,56.526,223.003,56.128,223.003,56.233ZZ" style="fill: rgb(126, 63, 152); fill-opacity: 1;"/></g></g><g id="shape-2720ca7d-91ed-8085-8003-848d72ddbbf8"><g class="fills" id="fills-2720ca7d-91ed-8085-8003-848d72ddbbf8"><path rx="0" ry="0" d="M6.184,68.538C3.162,77.600,2.434,84.318,3.845,89.822C4.331,91.684,5.875,94.698,7.111,96.142C8.302,97.544,10.442,99.281,12.163,100.202L13.376,100.871L14.060,99.051C16.045,93.735,16.531,89.361,15.516,85.741C15.317,85.050,13.972,82.183,12.538,79.358C9.956,74.293,8.258,70.087,7.684,67.262C7.530,66.529,7.331,65.922,7.243,65.859C7.155,65.818,6.669,67.010,6.184,68.538ZZ" style="fill: rgb(126, 63, 152); fill-opacity: 1;"/></g></g><g id="shape-2720ca7d-91ed-8085-8003-848d72ddbbf9"><g class="fills" id="fills-2720ca7d-91ed-8085-8003-848d72ddbbf9"><path rx="0" ry="0" d="M256.581,66.487C256.448,66.948,256.183,67.910,255.985,68.643C255.257,71.363,253.735,74.963,251.551,79.169C248.396,85.197,248.065,86.243,248.065,89.822C248.065,92.919,248.528,95.200,249.940,99.030L250.646,100.913L251.440,100.453C255.279,98.256,257.375,96.142,258.963,92.877C260.022,90.680,260.441,89.173,260.750,86.473C261.258,81.702,260.088,74.775,257.573,67.743L256.823,65.650L256.581,66.487ZZ" style="fill: rgb(126, 63, 152); fill-opacity: 1;"/></g></g><g id="shape-2720ca7d-91ed-8085-8003-848d72ddbbfa"><g class="fills" id="fills-2720ca7d-91ed-8085-8003-848d72ddbbfa"><path rx="0" ry="0" d="M35.217,75.256C33.452,77.851,30.849,79.839,26.436,81.995C21.406,84.443,19.178,87.457,17.524,94.049L17.016,96.079L18.141,95.953C20.083,95.765,22.730,95.075,24.340,94.342C28.687,92.375,31.488,89.026,33.452,83.439C34.202,81.262,35.989,74.796,35.879,74.544C35.834,74.461,35.548,74.775,35.217,75.256ZZ" style="fill: rgb(126, 63, 152); fill-opacity: 1;"/></g></g><g id="shape-2720ca7d-91ed-8085-8003-848d72ddbbfb"><g class="fills" id="fills-2720ca7d-91ed-8085-8003-848d72ddbbfb"><path rx="0" ry="0" d="M228.077,74.544C228.077,75.130,230.041,81.974,230.725,83.857C233.218,90.512,237.012,94.091,243.035,95.451C244.513,95.786,247.050,96.163,247.050,96.037C247.050,96.016,246.763,94.949,246.410,93.672C244.601,87.185,242.550,84.443,237.740,82.078C233.129,79.818,230.769,78.018,228.827,75.298C228.408,74.712,228.077,74.377,228.077,74.544ZZ" style="fill: rgb(126, 63, 152); fill-opacity: 1;"/></g></g><g id="shape-2720ca7d-91ed-8085-8003-848d72ddbbfc"><g class="fills" id="fills-2720ca7d-91ed-8085-8003-848d72ddbbfc"><path rx="0" ry="0" d="M0.845,91.182C0.845,91.287,0.691,92.605,0.514,94.112C-0.699,104.157,0.249,112.654,3.206,118.179C4.816,121.234,7.486,124.038,10.177,125.566C11.633,126.403,14.611,127.638,15.560,127.826C16.222,127.952,16.222,127.931,16.354,126.926C17.479,118.786,16.773,113.847,13.883,109.640C13.310,108.824,11.655,106.710,10.199,104.994C5.985,100.013,4.573,97.963,2.235,93.589C1.485,92.145,0.845,91.056,0.845,91.182ZZ" style="fill: rgb(126, 63, 152); fill-opacity: 1;"/></g></g><g id="shape-2720ca7d-91ed-8085-8003-848d72ddbbfd"><g class="fills" id="fills-2720ca7d-91ed-8085-8003-848d72ddbbfd"><path rx="0" ry="0" d="M262.272,92.584C260.530,96.309,257.948,100.076,253.823,104.994C249.499,110.122,248.396,111.984,247.580,115.584C247.116,117.530,247.072,122.553,247.491,125.671L247.778,127.952L248.440,127.826C249.389,127.638,252.367,126.403,253.845,125.566C254.507,125.189,255.808,124.206,256.713,123.411C261.964,118.723,264.390,111.000,263.949,100.286C263.839,97.167,263.265,91.328,263.067,91.140C263.022,91.098,262.670,91.747,262.272,92.584ZZ" style="fill: rgb(126, 63, 152); fill-opacity: 1;"/></g></g><g id="shape-2720ca7d-91ed-8085-8003-848d72ddbbfe"><g class="fills" id="fills-2720ca7d-91ed-8085-8003-848d72ddbbfe"><path rx="0" ry="0" d="M34.003,94.635C33.761,95.514,32.106,98.444,31.135,99.679C30.231,100.830,28.289,102.608,24.892,105.350C22.090,107.631,20.744,109.682,19.840,113.030C19.310,115.081,18.869,118.869,18.980,120.711L19.046,122.008L21.208,121.213C25.311,119.706,28.312,117.551,30.297,114.747C32.790,111.168,33.761,107.171,34.158,98.821C34.356,94.551,34.312,93.505,34.003,94.635ZZ" style="fill: rgb(126, 63, 152); fill-opacity: 1;"/></g></g><g id="shape-2720ca7d-91ed-8085-8003-848d72ddbbff"><g class="fills" id="fills-2720ca7d-91ed-8085-8003-848d72ddbbff"><path rx="0" ry="0" d="M229.732,95.619C229.776,96.393,229.886,98.444,229.952,100.139C230.460,112.633,233.924,118.095,243.608,121.506L245.131,122.050L244.998,119.079C244.800,114.935,244.248,112.403,243.035,109.975C242.130,108.133,240.983,106.836,238.601,104.952C235.622,102.567,233.879,100.955,232.865,99.679C231.938,98.507,230.063,95.158,230.063,94.719C230.063,94.572,229.952,94.384,229.842,94.321C229.688,94.237,229.644,94.677,229.732,95.619ZZ" style="fill: rgb(126, 63, 152); fill-opacity: 1;"/></g></g><g id="shape-2720ca7d-91ed-8085-8003-848d72ddbc00"><g class="fills" id="fills-2720ca7d-91ed-8085-8003-848d72ddbc00"><path rx="0" ry="0" d="M37.048,118.555C36.408,122.448,34.930,125.503,31.753,129.542C30.782,130.777,29.635,132.347,29.194,133.037C26.855,136.721,26.525,141.618,28.113,148.315C28.422,149.570,28.709,150.638,28.753,150.679C28.797,150.721,29.503,150.345,30.341,149.842C38.702,144.694,41.482,137.537,39.453,126.340C39.033,123.976,37.511,116.986,37.401,116.881C37.357,116.860,37.202,117.614,37.048,118.555ZZ" style="fill: rgb(126, 63, 152); fill-opacity: 1;"/></g></g><g id="shape-2720ca7d-91ed-8085-8003-848d72ddbc01"><g class="fills" id="fills-2720ca7d-91ed-8085-8003-848d72ddbc01"><path rx="0" ry="0" d="M225.805,120.397C224.217,127.366,223.753,130.819,223.974,134.293C224.305,140.153,226.643,144.610,231.144,148.063C232.776,149.319,235.115,150.805,235.269,150.679C235.313,150.617,235.600,149.549,235.887,148.294C237.475,141.555,237.144,136.721,234.828,133.079C234.387,132.410,233.262,130.861,232.313,129.626C228.827,125.127,227.680,122.741,226.908,118.388L226.621,116.756L225.805,120.397ZZ" style="fill: rgb(126, 63, 152); fill-opacity: 1;"/></g></g><g id="shape-2720ca7d-91ed-8085-8003-848d72ddbc02"><g class="fills" id="fills-2720ca7d-91ed-8085-8003-848d72ddbc02"><path rx="0" ry="0" d="M0.492,122.469C0.558,122.762,0.779,124.122,0.955,125.503C2.169,134.126,4.551,141.639,7.662,146.724C11.876,153.546,17.457,157.062,25.245,157.837C26.436,157.962,27.407,158.025,27.429,158.004C27.517,157.899,26.900,153.693,26.525,151.663C26.017,149.026,24.627,145.113,23.546,143.313C21.892,140.529,19.840,138.562,15.163,135.235C9.405,131.112,5.809,128.015,2.654,124.457C0.316,121.799,0.360,121.841,0.492,122.469ZZ" style="fill: rgb(126, 63, 152); fill-opacity: 1;"/></g></g><g id="shape-2720ca7d-91ed-8085-8003-848d72ddbc03"><g class="fills" id="fills-2720ca7d-91ed-8085-8003-848d72ddbc03"><path rx="0" ry="0" d="M262.250,123.473C260.530,125.503,256.514,129.396,254.264,131.175C253.205,132.033,250.933,133.728,249.234,134.942C245.682,137.474,244.116,138.772,242.527,140.509C239.571,143.710,237.740,148.587,236.814,155.744C236.659,156.958,236.549,157.962,236.571,158.004C236.593,158.025,237.564,157.962,238.755,157.837C246.565,157.062,252.124,153.546,256.360,146.682C258.809,142.706,260.927,136.888,262.184,130.610C262.581,128.663,263.574,122.176,263.508,122.113C263.464,122.071,262.912,122.678,262.250,123.473ZZ" style="fill: rgb(126, 63, 152); fill-opacity: 1;"/></g></g><g id="shape-2720ca7d-91ed-8085-8003-848d72ddcf08"><g class="fills" id="fills-2720ca7d-91ed-8085-8003-848d72ddcf08"><path rx="0" ry="0" d="M46.755,139.776C46.843,140.341,46.931,141.890,46.931,143.229C46.953,147.164,46.512,148.901,43.666,155.974C42.365,159.218,41.990,161.562,42.321,164.220C42.740,167.505,44.284,171.670,46.667,175.834L47.681,177.592L48.674,176.567C50.571,174.537,52.292,172.172,53.351,170.100C56.550,163.780,56.087,157.418,51.697,148.210C50.549,145.803,46.799,138.792,46.645,138.792C46.600,138.792,46.667,139.232,46.755,139.776ZZ" style="fill: rgb(126, 63, 152); fill-opacity: 1;"/></g></g><g id="shape-2720ca7d-91ed-8085-8003-848d72ddcf09"><g class="fills" id="fills-2720ca7d-91ed-8085-8003-848d72ddcf09"><path rx="0" ry="0" d="M215.436,142.183C211.090,150.114,209.237,154.865,208.685,159.574C207.979,165.496,210.185,171.105,215.326,176.567L216.319,177.592L217.333,175.834C219.716,171.670,221.260,167.505,221.679,164.220C222.010,161.562,221.635,159.218,220.334,155.974C217.532,149.005,217.047,147.122,217.069,143.355C217.069,142.057,217.157,140.509,217.267,139.943C217.355,139.358,217.422,138.876,217.378,138.834C217.333,138.792,216.473,140.299,215.436,142.183ZZ" style="fill: rgb(126, 63, 152); fill-opacity: 1;"/></g></g><g id="shape-2720ca7d-91ed-8085-8003-848d72ddcf0a"><g class="fills" id="fills-2720ca7d-91ed-8085-8003-848d72ddcf0a"><path rx="0" ry="0" d="M8.920,154.970C9.339,156.267,11.677,161.248,13.199,164.115C20.656,178.262,28.951,185.273,39.430,186.298C41.703,186.529,43.335,186.445,46.468,185.943C47.814,185.733,48.498,185.545,48.432,185.378C46.865,181.694,46.314,180.480,45.321,178.597C42.916,174.056,39.783,170.331,36.695,168.363C34.776,167.149,31.952,165.852,27.429,164.115C20.391,161.436,17.171,159.846,11.854,156.455C9.427,154.928,8.787,154.593,8.920,154.970ZZ" style="fill: rgb(126, 63, 152); fill-opacity: 1;"/></g></g><g id="shape-2720ca7d-91ed-8085-8003-848d72ddcf0b"><g class="fills" id="fills-2720ca7d-91ed-8085-8003-848d72ddcf0b"><path rx="0" ry="0" d="M253.889,155.346C249.124,158.611,243.476,161.499,236.902,164.010C232.048,165.852,229.247,167.129,227.305,168.363C224.327,170.268,221.084,174.056,218.878,178.241C218.106,179.664,215.502,185.357,215.502,185.587C215.502,185.691,218.326,186.110,220.245,186.298C224.481,186.717,228.607,185.984,232.600,184.101C240.189,180.564,246.631,173.030,252.455,160.871C253.955,157.711,255.279,154.677,255.169,154.593C255.125,154.551,254.551,154.886,253.889,155.346ZZ" style="fill: rgb(126, 63, 152); fill-opacity: 1;"/></g></g><g id="shape-2720ca7d-91ed-8085-8003-848d72ddcf0c"><g class="fills" id="fills-2720ca7d-91ed-8085-8003-848d72ddcf0c"><path rx="0" ry="0" d="M62.463,158.883C62.529,159.050,62.882,159.909,63.257,160.767C65.176,165.392,65.617,169.305,64.911,175.667C64.492,179.350,64.602,183.013,65.154,184.938C66.301,188.872,69.853,193.979,74.486,198.290L76.008,199.734L76.913,197.976C78.060,195.716,78.766,193.958,79.406,191.635C80.134,188.956,80.156,184.101,79.450,181.464C78.170,176.651,75.015,171.712,69.544,165.873C66.566,162.713,62.308,158.506,62.463,158.883ZZ" style="fill: rgb(126, 63, 152); fill-opacity: 1;"/></g></g><g id="shape-2720ca7d-91ed-8085-8003-848d72ddcf0d"><g class="fills" id="fills-2720ca7d-91ed-8085-8003-848d72ddcf0d"><path rx="0" ry="0" d="M199.022,161.143C191.345,168.886,188.014,173.072,185.918,177.718C184.440,180.962,184.065,182.741,184.087,186.508C184.087,189.333,184.153,190.023,184.660,191.844C185.256,193.958,186.823,197.767,187.639,199.022L188.080,199.692L190.154,197.662C194.743,193.163,197.743,188.768,198.846,184.938C199.397,182.992,199.486,179.539,199.089,175.751C198.383,169.096,198.802,165.350,200.831,160.557C201.251,159.595,201.560,158.778,201.515,158.737C201.493,158.716,200.368,159.804,199.022,161.143ZZ" style="fill: rgb(126, 63, 152); fill-opacity: 1;"/></g></g><g id="shape-2720ca7d-91ed-8085-8003-848d72ddcf0e"><g class="fills" id="fills-2720ca7d-91ed-8085-8003-848d72ddcf0e"><path rx="0" ry="0" d="M84.016,174.495C84.016,174.537,84.546,175.186,85.186,175.897C87.789,178.806,89.907,182.469,91.054,185.984C91.429,187.135,92.091,189.730,92.510,191.740C93.481,196.260,93.988,197.913,94.981,199.797C96.989,203.585,99.746,206.347,104.644,209.528C108.108,211.746,112.321,213.965,112.520,213.651C112.608,213.504,112.829,212.249,113.027,210.888C113.579,207.268,113.380,202.413,112.608,199.692C111.240,194.795,109.144,191.530,104.931,187.638C100.629,183.682,97.364,181.590,84.745,174.767C84.347,174.558,84.016,174.432,84.016,174.495ZZ" style="fill: rgb(126, 63, 152); fill-opacity: 1;"/></g></g><g id="shape-2720ca7d-91ed-8085-8003-848d72ddcf0f"><g class="fills" id="fills-2720ca7d-91ed-8085-8003-848d72ddcf0f"><path rx="0" ry="0" d="M175.549,176.776C167.078,181.380,163.018,184.059,159.268,187.470C154.436,191.844,151.966,196.155,150.951,201.785C150.421,204.861,150.620,210.009,151.436,213.462C151.546,213.944,151.546,213.944,153.245,213.065C161.673,208.691,166.460,204.673,168.953,199.922C170.012,197.913,170.497,196.323,171.490,191.740C172.438,187.303,173.277,184.687,174.468,182.322C175.814,179.685,177.711,176.986,179.388,175.269C179.763,174.893,180.028,174.558,179.961,174.516C179.917,174.474,177.932,175.479,175.549,176.776ZZ" style="fill: rgb(126, 63, 152); fill-opacity: 1;"/></g></g><g id="shape-2720ca7d-91ed-8085-8003-848d72ddcf10"><g class="fills" id="fills-2720ca7d-91ed-8085-8003-848d72ddcf10"><path rx="0" ry="0" d="M27.451,187.073C33.695,195.004,41.328,202.224,47.659,206.242C53.638,210.030,59.352,211.872,65.154,211.893C68.088,211.914,70.206,211.621,72.876,210.847C74.662,210.323,79.384,208.314,79.384,208.063C79.384,207.854,75.611,203.417,73.890,201.617C70.912,198.436,66.919,195.486,63.852,194.146C60.455,192.660,58.028,192.137,51.035,191.426C48.123,191.133,44.747,190.735,43.534,190.568C38.769,189.877,33.077,188.475,28.665,186.926L26.811,186.277L27.451,187.073ZZ" style="fill: rgb(126, 63, 152); fill-opacity: 1;"/></g></g><g id="shape-2720ca7d-91ed-8085-8003-848d72ddcf11"><g class="fills" id="fills-2720ca7d-91ed-8085-8003-848d72ddcf11"><path rx="0" ry="0" d="M235.247,186.947C231.078,188.433,225.253,189.856,220.466,190.568C219.253,190.735,215.877,191.133,212.965,191.426C205.773,192.158,203.413,192.681,199.949,194.251C195.912,196.072,191.477,199.818,186.977,205.133C185.675,206.661,184.616,207.979,184.616,208.063C184.616,208.314,189.338,210.323,191.124,210.847C193.794,211.621,195.912,211.914,198.846,211.893C201.979,211.893,204.494,211.474,207.604,210.449C216.076,207.645,224.790,200.948,234.056,190.065C236.130,187.638,237.211,186.298,237.100,186.319C237.056,186.319,236.218,186.612,235.247,186.947ZZ" style="fill: rgb(126, 63, 152); fill-opacity: 1;"/></g></g><g id="shape-2720ca7d-91ed-8085-8003-848d72ddcf12"><g class="fills" id="fills-2720ca7d-91ed-8085-8003-848d72ddcf12"><path rx="0" ry="0" d="M88.694,211.830C87.215,212.039,84.480,212.521,82.627,212.856C73.471,214.593,70.669,214.865,62.573,214.865C56.021,214.865,55.800,214.886,56.285,215.241C57.543,216.204,65.220,220.934,67.691,222.294C75.611,226.647,83.134,229.535,89.377,230.686C93.503,231.418,98.290,231.544,101.820,230.958C107.799,229.995,113.755,226.982,118.168,222.671L119.116,221.729L116.734,220.159C111.593,216.748,106.254,213.965,102.548,212.793C98.290,211.453,93.437,211.119,88.694,211.830ZZ" style="fill: rgb(126, 63, 152); fill-opacity: 1;"/></g></g><g id="shape-2720ca7d-91ed-8085-8003-848d72ddcf13"><g class="fills" id="fills-2720ca7d-91ed-8085-8003-848d72ddcf13"><path rx="0" ry="0" d="M166.085,211.725C160.371,212.646,154.878,215.116,147.266,220.159L144.884,221.729L145.722,222.566C147.994,224.784,151.480,227.191,154.569,228.656C160.856,231.649,169.041,232.151,177.446,230.058C185.256,228.112,194.588,223.759,204.030,217.669C205.795,216.518,207.450,215.430,207.715,215.220C208.200,214.886,207.935,214.865,201.427,214.865C193.242,214.865,190.882,214.634,180.866,212.772C173.409,211.391,169.703,211.140,166.085,211.725ZZ" style="fill: rgb(126, 63, 152); fill-opacity: 1;"/></g></g><g id="shape-2720ca7d-91ed-8085-8003-848d72ddcf14"><g class="fills" id="fills-2720ca7d-91ed-8085-8003-848d72ddcf14"><path rx="0" ry="0" d="M124.279,224.094C124.896,224.617,126.330,225.810,127.477,226.731C128.625,227.651,129.595,228.468,129.617,228.551C129.706,228.761,111.395,237.006,103.651,240.229C92.598,244.854,86.245,247.010,82.252,247.491L80.376,247.721L82.715,256.929C84.745,264.882,85.098,266.033,85.230,265.300C85.693,262.789,86.818,260.717,88.958,258.562C91.848,255.611,95.510,253.183,106.850,246.654C118.918,239.727,123.573,236.839,129.816,232.402C131.162,231.439,132.331,230.665,132.419,230.665C132.507,230.665,133.544,231.356,134.714,232.193C140.692,236.504,146.009,239.810,157.591,246.465C168.909,252.974,172.262,255.171,175.373,258.122C176.167,258.876,177.204,260.027,177.667,260.696C178.616,262.078,179.520,264.338,179.542,265.384C179.542,265.782,179.586,266.054,179.653,265.991C179.741,265.907,184.396,247.972,184.396,247.721C184.396,247.700,183.712,247.616,182.896,247.554C177.623,247.072,165.180,242.322,143.803,232.611C139.126,230.477,135.265,228.698,135.199,228.635C135.133,228.593,135.397,228.300,135.750,228.007C138.310,225.956,141.575,223.236,141.531,223.194C141.486,223.173,139.435,224.094,136.964,225.245C132.706,227.233,132.441,227.317,131.801,227.086C131.426,226.940,129.331,225.998,127.146,224.973L123.175,223.110L124.279,224.094ZZ" style="fill: rgb(126, 63, 152); fill-opacity: 1;"/></g></g></g></svg>