<svg xmlns:xlink="http://www.w3.org/1999/xlink" width="35" xmlns="http://www.w3.org/2000/svg" height="35" id="screenshot-f627a7a0-791a-80f3-8003-848ee742e11a" viewBox="-1.5 -1.5 35 35" style="-webkit-print-color-adjust: exact;" fill="none" version="1.1"><g id="shape-f627a7a0-791a-80f3-8003-848ee742e11a" width="24" class="feather feather-printer" height="24" rx="0" ry="0" style="fill: rgb(0, 0, 0);"><g id="shape-f627a7a0-791a-80f3-8003-848ee742e11c"><g class="fills" id="fills-f627a7a0-791a-80f3-8003-848ee742e11c"><path fill="none" stroke-linecap="round" stroke-linejoin="round" rx="0" ry="0" d="M8.000,12.000L8.000,2.667L24.000,2.667L24.000,12.000" style="fill: none;"/></g><g id="strokes-f627a7a0-791a-80f3-8003-848ee742e11c" class="strokes"><g class="stroke-shape"><path stroke-linecap="round" stroke-linejoin="round" rx="0" ry="0" d="M8.000,12.000L8.000,2.667L24.000,2.667L24.000,12.000" style="fill: none; stroke-width: 3; stroke: rgb(69, 174, 239); stroke-opacity: 1;"/></g></g></g><g id="shape-f627a7a0-791a-80f3-8003-848ee742e11d"><g class="fills" id="fills-f627a7a0-791a-80f3-8003-848ee742e11d"><path fill="none" stroke-linecap="round" stroke-linejoin="round" rx="0" ry="0" d="M8.000,24.000L5.333,24.000C3.861,24.000,2.667,22.806,2.667,21.333L2.667,14.667C2.667,13.194,3.861,12.000,5.333,12.000L26.667,12.000C28.139,12.000,29.333,13.194,29.333,14.667L29.333,21.333C29.333,22.806,28.139,24.000,26.667,24.000L24.000,24.000" style="fill: none;"/></g><g id="strokes-f627a7a0-791a-80f3-8003-848ee742e11d" class="strokes"><g class="stroke-shape"><path stroke-linecap="round" stroke-linejoin="round" rx="0" ry="0" d="M8.000,24.000L5.333,24.000C3.861,24.000,2.667,22.806,2.667,21.333L2.667,14.667C2.667,13.194,3.861,12.000,5.333,12.000L26.667,12.000C28.139,12.000,29.333,13.194,29.333,14.667L29.333,21.333C29.333,22.806,28.139,24.000,26.667,24.000L24.000,24.000" style="fill: none; stroke-width: 3; stroke: rgb(69, 174, 239); stroke-opacity: 1;"/></g></g></g><g id="shape-f627a7a0-791a-80f3-8003-848ee742e11e"><g class="fills" id="fills-f627a7a0-791a-80f3-8003-848ee742e11e"><rect width="16" height="10.66666666666606" x="8" stroke-linejoin="round" transform="matrix(1.000000, 0.000000, 0.000000, 1.000000, 0.000000, 0.000000)" style="fill: none;" ry="0" fill="none" stroke-linecap="round" rx="0" y="18.66666666666697"/></g><g id="strokes-f627a7a0-791a-80f3-8003-848ee742e11e" class="strokes"><g class="stroke-shape"><rect width="16" height="10.66666666666606" x="8" stroke-linejoin="round" transform="matrix(1.000000, 0.000000, 0.000000, 1.000000, 0.000000, 0.000000)" style="fill: none; stroke-width: 3; stroke: rgb(69, 174, 239); stroke-opacity: 1;" ry="0" stroke-linecap="round" rx="0" y="18.66666666666697"/></g></g></g></g></svg>