<svg xmlns:xlink="http://www.w3.org/1999/xlink" width="35" xmlns="http://www.w3.org/2000/svg" height="35" id="screenshot-2720ca7d-91ed-8085-8003-848d877f76fd" viewBox="-1.5 -1.5 35 35" style="-webkit-print-color-adjust: exact;" fill="none" version="1.1"><g id="shape-2720ca7d-91ed-8085-8003-848d877f76fd" width="24" class="feather feather-save" height="24" rx="0" ry="0" style="fill: rgb(0, 0, 0);"><g id="shape-2720ca7d-91ed-8085-8003-848d877f76ff"><g class="fills" id="fills-2720ca7d-91ed-8085-8003-848d877f76ff"><path fill="none" stroke-linecap="round" stroke-linejoin="round" rx="0" ry="0" d="M25.333,28.000L6.667,28.000C5.194,28.000,4.000,26.806,4.000,25.333L4.000,6.667C4.000,5.194,5.194,4.000,6.667,4.000L21.333,4.000L28.000,10.667L28.000,25.333C28.000,26.806,26.806,28.000,25.333,28.000ZZ" style="fill: none;"/></g><g id="strokes-2720ca7d-91ed-8085-8003-848d877f76ff" class="strokes"><g class="stroke-shape"><path stroke-linecap="round" stroke-linejoin="round" rx="0" ry="0" d="M25.333,28.000L6.667,28.000C5.194,28.000,4.000,26.806,4.000,25.333L4.000,6.667C4.000,5.194,5.194,4.000,6.667,4.000L21.333,4.000L28.000,10.667L28.000,25.333C28.000,26.806,26.806,28.000,25.333,28.000ZZ" style="fill: none; stroke-width: 3; stroke: rgb(255, 255, 255); stroke-opacity: 1;"/></g></g></g><g id="shape-2720ca7d-91ed-8085-8003-848d877f7700"><g class="fills" id="fills-2720ca7d-91ed-8085-8003-848d877f7700"><path fill="none" stroke-linecap="round" stroke-linejoin="round" rx="0" ry="0" d="M22.667,28.000L22.667,17.333L9.333,17.333L9.333,28.000" style="fill: none;"/></g><g id="strokes-2720ca7d-91ed-8085-8003-848d877f7700" class="strokes"><g class="stroke-shape"><path stroke-linecap="round" stroke-linejoin="round" rx="0" ry="0" d="M22.667,28.000L22.667,17.333L9.333,17.333L9.333,28.000" style="fill: none; stroke-width: 3; stroke: rgb(255, 255, 255); stroke-opacity: 1;"/></g></g></g><g id="shape-2720ca7d-91ed-8085-8003-848d877f7701"><g class="fills" id="fills-2720ca7d-91ed-8085-8003-848d877f7701"><path fill="none" stroke-linecap="round" stroke-linejoin="round" rx="0" ry="0" d="M9.333,4.000L9.333,10.667L20.000,10.667" style="fill: none;"/></g><g id="strokes-2720ca7d-91ed-8085-8003-848d877f7701" class="strokes"><g class="stroke-shape"><path stroke-linecap="round" stroke-linejoin="round" rx="0" ry="0" d="M9.333,4.000L9.333,10.667L20.000,10.667" style="fill: none; stroke-width: 3; stroke: rgb(255, 255, 255); stroke-opacity: 1;"/></g></g></g></g></svg>