<svg xmlns:xlink="http://www.w3.org/1999/xlink" width="35" xmlns="http://www.w3.org/2000/svg" height="35" id="screenshot-2720ca7d-91ed-8085-8003-848d7b3e0786" viewBox="-1.5 -1.5 35 35" style="-webkit-print-color-adjust: exact;" fill="none" version="1.1"><g id="shape-2720ca7d-91ed-8085-8003-848d7b3e0786" width="24" class="feather feather-share" height="24" rx="0" ry="0" style="fill: rgb(0, 0, 0);"><g id="shape-2720ca7d-91ed-8085-8003-848d7b3e0788"><g class="fills" id="fills-2720ca7d-91ed-8085-8003-848d7b3e0788"><path fill="none" stroke-linecap="round" stroke-linejoin="round" rx="0" ry="0" d="M5.333,16.000L5.333,26.667C5.333,28.139,6.527,29.333,8.000,29.333L24.000,29.333C25.473,29.333,26.667,28.139,26.667,26.667L26.667,16.000" style="fill: none;"/></g><g id="strokes-2720ca7d-91ed-8085-8003-848d7b3e0788" class="strokes"><g class="stroke-shape"><path stroke-linecap="round" stroke-linejoin="round" rx="0" ry="0" d="M5.333,16.000L5.333,26.667C5.333,28.139,6.527,29.333,8.000,29.333L24.000,29.333C25.473,29.333,26.667,28.139,26.667,26.667L26.667,16.000" style="fill: none; stroke-width: 3; stroke: rgb(146, 125, 164); stroke-opacity: 1;"/></g></g></g><g id="shape-2720ca7d-91ed-8085-8003-848d7b3e0789"><g class="fills" id="fills-2720ca7d-91ed-8085-8003-848d7b3e0789"><path fill="none" stroke-linecap="round" stroke-linejoin="round" rx="0" ry="0" d="M21.333,8.000L16.000,2.667L10.667,8.000" style="fill: none;"/></g><g id="strokes-2720ca7d-91ed-8085-8003-848d7b3e0789" class="strokes"><g class="stroke-shape"><path stroke-linecap="round" stroke-linejoin="round" rx="0" ry="0" d="M21.333,8.000L16.000,2.667L10.667,8.000" style="fill: none; stroke-width: 3; stroke: rgb(146, 125, 164); stroke-opacity: 1;"/></g></g></g><g id="shape-2720ca7d-91ed-8085-8003-848d7b3e078a"><g class="fills" id="fills-2720ca7d-91ed-8085-8003-848d7b3e078a"><path fill="none" stroke-linejoin="round" stroke-linecap="round" rx="0" ry="0" d="M16.000,2.667L16.000,20.000" style="fill: none;"/></g><g id="strokes-2720ca7d-91ed-8085-8003-848d7b3e078a" class="strokes"><g class="stroke-shape"><path stroke-linejoin="round" stroke-linecap="round" rx="0" ry="0" d="M16.000,2.667L16.000,20.000" style="fill: none; stroke-width: 3; stroke: rgb(146, 125, 164); stroke-opacity: 1;"/></g></g></g></g></svg>