<svg xmlns:xlink="http://www.w3.org/1999/xlink" width="35" xmlns="http://www.w3.org/2000/svg" height="35" id="screenshot-f627a7a0-791a-80f3-8003-848ee742e113" viewBox="-1.5 -1.5 35 35" style="-webkit-print-color-adjust: exact;" fill="none" version="1.1"><g id="shape-f627a7a0-791a-80f3-8003-848ee742e113" rx="0" ry="0"><g id="shape-f627a7a0-791a-80f3-8003-848ee742e114" width="24" class="feather feather-plus-square" height="24" rx="0" ry="0" style="fill: rgb(0, 0, 0);"><g id="shape-f627a7a0-791a-80f3-8003-848ee742e117"><g class="fills" id="fills-f627a7a0-791a-80f3-8003-848ee742e117"><rect width="24" height="24" x="4" stroke-linejoin="round" transform="matrix(1.000000, 0.000000, 0.000000, 1.000000, 0.000000, 0.000000)" style="fill: none;" ry="2" fill="none" stroke-linecap="round" rx="2" y="4"/></g><g id="strokes-f627a7a0-791a-80f3-8003-848ee742e117" class="strokes"><g class="stroke-shape"><rect width="24" height="24" x="4" stroke-linejoin="round" transform="matrix(1.000000, 0.000000, 0.000000, 1.000000, 0.000000, 0.000000)" style="fill: none; stroke-width: 3; stroke: rgb(69, 174, 239); stroke-opacity: 1;" ry="2" stroke-linecap="round" rx="2" y="4"/></g></g></g></g><g id="shape-f627a7a0-791a-80f3-8003-848ee742e115" rx="0" ry="0"><g id="shape-f627a7a0-791a-80f3-8003-848ee742e118"><g class="fills" id="fills-f627a7a0-791a-80f3-8003-848ee742e118"><path fill="none" stroke-linecap="round" stroke-linejoin="round" rx="0" ry="0" d="M21.333,16.000L16.000,10.667L10.667,16.000" style="fill: none;"/></g><g id="strokes-f627a7a0-791a-80f3-8003-848ee742e118" class="strokes"><g class="stroke-shape"><path stroke-linecap="round" stroke-linejoin="round" rx="0" ry="0" d="M21.333,16.000L16.000,10.667L10.667,16.000" style="fill: none; stroke-width: 3; stroke: rgb(69, 174, 239); stroke-opacity: 1;"/></g></g></g><g id="shape-f627a7a0-791a-80f3-8003-848ee742e119"><g class="fills" id="fills-f627a7a0-791a-80f3-8003-848ee742e119"><path fill="none" stroke-linejoin="round" stroke-linecap="round" rx="0" ry="0" d="M16.000,21.333L16.000,10.667" style="fill: none;"/></g><g id="strokes-f627a7a0-791a-80f3-8003-848ee742e119" class="strokes"><g class="stroke-shape"><path stroke-linejoin="round" stroke-linecap="round" rx="0" ry="0" d="M16.000,21.333L16.000,10.667" style="fill: none; stroke-width: 3; stroke: rgb(69, 174, 239); stroke-opacity: 1;"/></g></g></g></g></g></svg>