<svg xmlns:xlink="http://www.w3.org/1999/xlink" width="35" xmlns="http://www.w3.org/2000/svg" height="35" id="screenshot-2720ca7d-91ed-8085-8003-8489db6297db" viewBox="-1.5 -1.5 35 35" style="-webkit-print-color-adjust: exact;" fill="none" version="1.1"><g id="shape-2720ca7d-91ed-8085-8003-8489db6297db" rx="0" ry="0"><g id="shape-2720ca7d-91ed-8085-8003-8489db6297dc" width="24" class="feather feather-plus-square" height="24" rx="0" ry="0" style="fill: rgb(0, 0, 0);"><g id="shape-2720ca7d-91ed-8085-8003-8489db6297df"><g class="fills" id="fills-2720ca7d-91ed-8085-8003-8489db6297df"><rect width="24" height="24" x="4" stroke-linejoin="round" transform="matrix(1.000000, 0.000000, 0.000000, 1.000000, 0.000000, 0.000000)" style="fill: none;" ry="2" fill="none" stroke-linecap="round" rx="2" y="4"/></g><g id="strokes-2720ca7d-91ed-8085-8003-8489db6297df" class="strokes"><g class="stroke-shape"><rect width="24" height="24" x="4" stroke-linejoin="round" transform="matrix(1.000000, 0.000000, 0.000000, 1.000000, 0.000000, 0.000000)" style="fill: none; stroke-width: 3; stroke: rgb(57, 20, 74); stroke-opacity: 1;" ry="2" stroke-linecap="round" rx="2" y="4"/></g></g></g></g><g id="shape-2720ca7d-91ed-8085-8003-8489db6297dd" rx="0" ry="0"><g id="shape-2720ca7d-91ed-8085-8003-8489db6297e0"><g class="fills" id="fills-2720ca7d-91ed-8085-8003-8489db6297e0"><path fill="none" stroke-linecap="round" stroke-linejoin="round" rx="0" ry="0" d="M21.333,16.000L16.000,10.667L10.667,16.000" style="fill: none;"/></g><g id="strokes-2720ca7d-91ed-8085-8003-8489db6297e0" class="strokes"><g class="stroke-shape"><path stroke-linecap="round" stroke-linejoin="round" rx="0" ry="0" d="M21.333,16.000L16.000,10.667L10.667,16.000" style="fill: none; stroke-width: 3; stroke: rgb(57, 20, 74); stroke-opacity: 1;"/></g></g></g><g id="shape-2720ca7d-91ed-8085-8003-8489db6297e1"><g class="fills" id="fills-2720ca7d-91ed-8085-8003-8489db6297e1"><path fill="none" stroke-linejoin="round" stroke-linecap="round" rx="0" ry="0" d="M16.000,21.333L16.000,10.667" style="fill: none;"/></g><g id="strokes-2720ca7d-91ed-8085-8003-8489db6297e1" class="strokes"><g class="stroke-shape"><path stroke-linejoin="round" stroke-linecap="round" rx="0" ry="0" d="M16.000,21.333L16.000,10.667" style="fill: none; stroke-width: 3; stroke: rgb(57, 20, 74); stroke-opacity: 1;"/></g></g></g></g></g></svg>