<svg xmlns:xlink="http://www.w3.org/1999/xlink" width="35" xmlns="http://www.w3.org/2000/svg" height="35" id="screenshot-f627a7a0-791a-80f3-8003-848edb6ec94d" viewBox="-1.5 -1.5 35 35" style="-webkit-print-color-adjust: exact;" fill="none" version="1.1"><g id="shape-f627a7a0-791a-80f3-8003-848edb6ec94d" width="24" class="feather feather-user" height="24" rx="0" ry="0" style="fill: rgb(0, 0, 0);"><g id="shape-f627a7a0-791a-80f3-8003-848edb6ec94f"><g class="fills" id="fills-f627a7a0-791a-80f3-8003-848edb6ec94f"><path fill="none" stroke-linecap="round" stroke-linejoin="round" rx="0" ry="0" d="M26.667,28.000L26.667,25.333C26.667,22.388,24.279,20.000,21.333,20.000L10.667,20.000C7.721,20.000,5.333,22.388,5.333,25.333L5.333,28.000" style="fill: none;"/></g><g id="strokes-f627a7a0-791a-80f3-8003-848edb6ec94f" class="strokes"><g class="stroke-shape"><path stroke-linecap="round" stroke-linejoin="round" rx="0" ry="0" d="M26.667,28.000L26.667,25.333C26.667,22.388,24.279,20.000,21.333,20.000L10.667,20.000C7.721,20.000,5.333,22.388,5.333,25.333L5.333,28.000" style="fill: none; stroke-width: 3; stroke: rgb(3, 93, 125); stroke-opacity: 1;"/></g></g></g><g id="shape-f627a7a0-791a-80f3-8003-848edb6ec950"><g class="fills" id="fills-f627a7a0-791a-80f3-8003-848edb6ec950"><ellipse cy="9.333333333333485" stroke-linejoin="round" transform="matrix(1.000000, 0.000000, 0.000000, 1.000000, 0.000000, 0.000000)" style="fill: none;" ry="5.333333333333485" fill="none" stroke-linecap="round" rx="5.333333333333485" cx="15.999999999999545"/></g><g id="strokes-f627a7a0-791a-80f3-8003-848edb6ec950" class="strokes"><g class="stroke-shape"><ellipse stroke-linecap="round" stroke-linejoin="round" rx="5.333333333333485" ry="5.333333333333485" cx="15.999999999999545" cy="9.333333333333485" transform="matrix(1.000000, 0.000000, 0.000000, 1.000000, 0.000000, 0.000000)" style="fill: none; stroke-width: 3; stroke: rgb(3, 93, 125); stroke-opacity: 1;"/></g></g></g></g></svg>