<svg xmlns:xlink="http://www.w3.org/1999/xlink" width="35" xmlns="http://www.w3.org/2000/svg" height="35" id="screenshot-2720ca7d-91ed-8085-8003-848d7b3e7cd8" viewBox="-1.5 -1.5 35 35" style="-webkit-print-color-adjust: exact;" fill="none" version="1.1"><g id="shape-2720ca7d-91ed-8085-8003-848d7b3e7cd8" width="24" class="feather feather-user-plus" height="24" rx="0" ry="0" style="fill: rgb(0, 0, 0);"><g id="shape-2720ca7d-91ed-8085-8003-848d7b3e7cda"><g class="fills" id="fills-2720ca7d-91ed-8085-8003-848d7b3e7cda"><path fill="none" stroke-linecap="round" stroke-linejoin="round" rx="0" ry="0" d="M21.333,28.000L21.333,25.333C21.333,22.388,18.946,20.000,16.000,20.000L6.667,20.000C3.721,20.000,1.333,22.388,1.333,25.333L1.333,28.000" style="fill: none;"/></g><g id="strokes-2720ca7d-91ed-8085-8003-848d7b3e7cda" class="strokes"><g class="stroke-shape"><path stroke-linecap="round" stroke-linejoin="round" rx="0" ry="0" d="M21.333,28.000L21.333,25.333C21.333,22.388,18.946,20.000,16.000,20.000L6.667,20.000C3.721,20.000,1.333,22.388,1.333,25.333L1.333,28.000" style="fill: none; stroke-width: 3; stroke: rgb(146, 125, 164); stroke-opacity: 1;"/></g></g></g><g id="shape-2720ca7d-91ed-8085-8003-848d7b3e7cdb"><g class="fills" id="fills-2720ca7d-91ed-8085-8003-848d7b3e7cdb"><ellipse cy="9.333333333333371" stroke-linejoin="round" transform="matrix(1.000000, 0.000000, 0.000000, 1.000000, 0.000000, 0.000000)" style="fill: none;" ry="5.333333333333371" fill="none" stroke-linecap="round" rx="5.33333333333303" cx="11.33333333333303"/></g><g id="strokes-2720ca7d-91ed-8085-8003-848d7b3e7cdb" class="strokes"><g class="stroke-shape"><ellipse stroke-linecap="round" stroke-linejoin="round" rx="5.33333333333303" ry="5.333333333333371" cx="11.33333333333303" cy="9.333333333333371" transform="matrix(1.000000, 0.000000, 0.000000, 1.000000, 0.000000, 0.000000)" style="fill: none; stroke-width: 3; stroke: rgb(146, 125, 164); stroke-opacity: 1;"/></g></g></g><g id="shape-2720ca7d-91ed-8085-8003-848d7b3e7cdc"><g class="fills" id="fills-2720ca7d-91ed-8085-8003-848d7b3e7cdc"><path fill="none" stroke-linejoin="round" stroke-linecap="round" rx="0" ry="0" d="M26.667,10.667L26.667,18.667" style="fill: none;"/></g><g id="strokes-2720ca7d-91ed-8085-8003-848d7b3e7cdc" class="strokes"><g class="stroke-shape"><path stroke-linejoin="round" stroke-linecap="round" rx="0" ry="0" d="M26.667,10.667L26.667,18.667" style="fill: none; stroke-width: 3; stroke: rgb(146, 125, 164); stroke-opacity: 1;"/></g></g></g><g id="shape-2720ca7d-91ed-8085-8003-848d7b3e7cdd"><g class="fills" id="fills-2720ca7d-91ed-8085-8003-848d7b3e7cdd"><path fill="none" stroke-linejoin="round" stroke-linecap="round" rx="0" ry="0" d="M30.667,14.667L22.667,14.667" style="fill: none;"/></g><g id="strokes-2720ca7d-91ed-8085-8003-848d7b3e7cdd" class="strokes"><g class="stroke-shape"><path stroke-linejoin="round" stroke-linecap="round" rx="0" ry="0" d="M30.667,14.667L22.667,14.667" style="fill: none; stroke-width: 3; stroke: rgb(146, 125, 164); stroke-opacity: 1;"/></g></g></g></g></svg>