<svg xmlns:xlink="http://www.w3.org/1999/xlink" width="35" xmlns="http://www.w3.org/2000/svg" height="35" id="screenshot-f627a7a0-791a-80f3-8003-848edb6e8720" viewBox="-1.5 -1.5 35 35" style="-webkit-print-color-adjust: exact;" fill="none" version="1.1"><g id="shape-f627a7a0-791a-80f3-8003-848edb6e8720" width="24" class="feather feather-user-x" height="24" rx="0" ry="0" style="fill: rgb(0, 0, 0);"><g id="shape-f627a7a0-791a-80f3-8003-848edb6e8722"><g class="fills" id="fills-f627a7a0-791a-80f3-8003-848edb6e8722"><path fill="none" stroke-linecap="round" stroke-linejoin="round" rx="0" ry="0" d="M21.333,28.000L21.333,25.333C21.333,22.388,18.946,20.000,16.000,20.000L6.667,20.000C3.721,20.000,1.333,22.388,1.333,25.333L1.333,28.000" style="fill: none;"/></g><g id="strokes-f627a7a0-791a-80f3-8003-848edb6e8722" class="strokes"><g class="stroke-shape"><path stroke-linecap="round" stroke-linejoin="round" rx="0" ry="0" d="M21.333,28.000L21.333,25.333C21.333,22.388,18.946,20.000,16.000,20.000L6.667,20.000C3.721,20.000,1.333,22.388,1.333,25.333L1.333,28.000" style="fill: none; stroke-width: 3; stroke: rgb(3, 93, 125); stroke-opacity: 1;"/></g></g></g><g id="shape-f627a7a0-791a-80f3-8003-848edb6e8723"><g class="fills" id="fills-f627a7a0-791a-80f3-8003-848edb6e8723"><ellipse cy="9.333333333333258" stroke-linejoin="round" transform="matrix(1.000000, 0.000000, 0.000000, 1.000000, 0.000000, 0.000000)" style="fill: none;" ry="5.3333333333332575" fill="none" stroke-linecap="round" rx="5.33333333333303" cx="11.33333333333303"/></g><g id="strokes-f627a7a0-791a-80f3-8003-848edb6e8723" class="strokes"><g class="stroke-shape"><ellipse stroke-linecap="round" stroke-linejoin="round" rx="5.33333333333303" ry="5.3333333333332575" cx="11.33333333333303" cy="9.333333333333258" transform="matrix(1.000000, 0.000000, 0.000000, 1.000000, 0.000000, 0.000000)" style="fill: none; stroke-width: 3; stroke: rgb(3, 93, 125); stroke-opacity: 1;"/></g></g></g><g id="shape-f627a7a0-791a-80f3-8003-848edb6ec93b"><g class="fills" id="fills-f627a7a0-791a-80f3-8003-848edb6ec93b"><path fill="none" stroke-linejoin="round" stroke-linecap="round" rx="0" ry="0" d="M24.000,10.667L30.667,17.333" style="fill: none;"/></g><g id="strokes-f627a7a0-791a-80f3-8003-848edb6ec93b" class="strokes"><g class="stroke-shape"><path stroke-linejoin="round" stroke-linecap="round" rx="0" ry="0" d="M24.000,10.667L30.667,17.333" style="fill: none; stroke-width: 3; stroke: rgb(3, 93, 125); stroke-opacity: 1;"/></g></g></g><g id="shape-f627a7a0-791a-80f3-8003-848edb6ec93c"><g class="fills" id="fills-f627a7a0-791a-80f3-8003-848edb6ec93c"><path fill="none" stroke-linejoin="round" stroke-linecap="round" rx="0" ry="0" d="M30.667,10.667L24.000,17.333" style="fill: none;"/></g><g id="strokes-f627a7a0-791a-80f3-8003-848edb6ec93c" class="strokes"><g class="stroke-shape"><path stroke-linejoin="round" stroke-linecap="round" rx="0" ry="0" d="M30.667,10.667L24.000,17.333" style="fill: none; stroke-width: 3; stroke: rgb(3, 93, 125); stroke-opacity: 1;"/></g></g></g></g></svg>