<svg xmlns:xlink="http://www.w3.org/1999/xlink" width="35" xmlns="http://www.w3.org/2000/svg" height="35" id="screenshot-2720ca7d-91ed-8085-8003-848d72ddbbc2" viewBox="-1.5 -1.5 35 35" style="-webkit-print-color-adjust: exact;" fill="none" version="1.1"><g id="shape-2720ca7d-91ed-8085-8003-848d72ddbbc2" width="24" class="feather feather-user" height="24" rx="0" ry="0" style="fill: rgb(0, 0, 0);"><g id="shape-2720ca7d-91ed-8085-8003-848d72ddbbc4"><g class="fills" id="fills-2720ca7d-91ed-8085-8003-848d72ddbbc4"><path fill="none" stroke-linecap="round" stroke-linejoin="round" rx="0" ry="0" d="M26.667,28.000L26.667,25.333C26.667,22.388,24.279,20.000,21.333,20.000L10.667,20.000C7.721,20.000,5.333,22.388,5.333,25.333L5.333,28.000" style="fill: none;"/></g><g id="strokes-2720ca7d-91ed-8085-8003-848d72ddbbc4" class="strokes"><g class="stroke-shape"><path stroke-linecap="round" stroke-linejoin="round" rx="0" ry="0" d="M26.667,28.000L26.667,25.333C26.667,22.388,24.279,20.000,21.333,20.000L10.667,20.000C7.721,20.000,5.333,22.388,5.333,25.333L5.333,28.000" style="fill: none; stroke-width: 3; stroke: rgb(126, 63, 152); stroke-opacity: 1;"/></g></g></g><g id="shape-2720ca7d-91ed-8085-8003-848d72ddbbc5"><g class="fills" id="fills-2720ca7d-91ed-8085-8003-848d72ddbbc5"><ellipse cy="9.333333333333371" stroke-linejoin="round" transform="matrix(1.000000, 0.000000, 0.000000, 1.000000, 0.000000, 0.000000)" style="fill: none;" ry="5.333333333333371" fill="none" stroke-linecap="round" rx="5.333333333333485" cx="15.999999999999545"/></g><g id="strokes-2720ca7d-91ed-8085-8003-848d72ddbbc5" class="strokes"><g class="stroke-shape"><ellipse stroke-linecap="round" stroke-linejoin="round" rx="5.333333333333485" ry="5.333333333333371" cx="15.999999999999545" cy="9.333333333333371" transform="matrix(1.000000, 0.000000, 0.000000, 1.000000, 0.000000, 0.000000)" style="fill: none; stroke-width: 3; stroke: rgb(126, 63, 152); stroke-opacity: 1;"/></g></g></g></g></svg>