<svg xmlns:xlink="http://www.w3.org/1999/xlink" width="35" xmlns="http://www.w3.org/2000/svg" height="35" id="screenshot-f627a7a0-791a-80f3-8003-848ee7431ad8" viewBox="-1.5 -1.5 35 35" style="-webkit-print-color-adjust: exact;" fill="none" version="1.1"><g id="shape-f627a7a0-791a-80f3-8003-848ee7431ad8" width="24" class="feather feather-users" height="24" rx="0" ry="0" style="fill: rgb(0, 0, 0);"><g id="shape-f627a7a0-791a-80f3-8003-848ee7431ada"><g class="fills" id="fills-f627a7a0-791a-80f3-8003-848ee7431ada"><path fill="none" stroke-linecap="round" stroke-linejoin="round" rx="0" ry="0" d="M22.667,28.000L22.667,25.333C22.667,22.388,20.279,20.000,17.333,20.000L6.667,20.000C3.721,20.000,1.333,22.388,1.333,25.333L1.333,28.000" style="fill: none;"/></g><g id="strokes-f627a7a0-791a-80f3-8003-848ee7431ada" class="strokes"><g class="stroke-shape"><path stroke-linecap="round" stroke-linejoin="round" rx="0" ry="0" d="M22.667,28.000L22.667,25.333C22.667,22.388,20.279,20.000,17.333,20.000L6.667,20.000C3.721,20.000,1.333,22.388,1.333,25.333L1.333,28.000" style="fill: none; stroke-width: 3; stroke: rgb(69, 174, 239); stroke-opacity: 1;"/></g></g></g><g id="shape-f627a7a0-791a-80f3-8003-848ee7431adb"><g class="fills" id="fills-f627a7a0-791a-80f3-8003-848ee7431adb"><ellipse cy="9.333333333333485" stroke-linejoin="round" transform="matrix(1.000000, 0.000000, 0.000000, 1.000000, 0.000000, 0.000000)" style="fill: none;" ry="5.333333333333485" fill="none" stroke-linecap="round" rx="5.333333333333485" cx="11.999999999999545"/></g><g id="strokes-f627a7a0-791a-80f3-8003-848ee7431adb" class="strokes"><g class="stroke-shape"><ellipse stroke-linecap="round" stroke-linejoin="round" rx="5.333333333333485" ry="5.333333333333485" cx="11.999999999999545" cy="9.333333333333485" transform="matrix(1.000000, 0.000000, 0.000000, 1.000000, 0.000000, 0.000000)" style="fill: none; stroke-width: 3; stroke: rgb(69, 174, 239); stroke-opacity: 1;"/></g></g></g><g id="shape-f627a7a0-791a-80f3-8003-848ee7431adc"><g class="fills" id="fills-f627a7a0-791a-80f3-8003-848ee7431adc"><path fill="none" stroke-linecap="round" stroke-linejoin="round" rx="0" ry="0" d="M30.667,28.000L30.667,25.333C30.665,22.903,29.020,20.781,26.667,20.173" style="fill: none;"/></g><g id="strokes-f627a7a0-791a-80f3-8003-848ee7431adc" class="strokes"><g class="stroke-shape"><path stroke-linecap="round" stroke-linejoin="round" rx="0" ry="0" d="M30.667,28.000L30.667,25.333C30.665,22.903,29.020,20.781,26.667,20.173" style="fill: none; stroke-width: 3; stroke: rgb(69, 174, 239); stroke-opacity: 1;"/></g></g></g><g id="shape-f627a7a0-791a-80f3-8003-848ee7431add"><g class="fills" id="fills-f627a7a0-791a-80f3-8003-848ee7431add"><path fill="none" stroke-linecap="round" stroke-linejoin="round" rx="0" ry="0" d="M21.333,4.173C23.693,4.778,25.344,6.904,25.344,9.340C25.344,11.776,23.693,13.902,21.333,14.507" style="fill: none;"/></g><g id="strokes-f627a7a0-791a-80f3-8003-848ee7431add" class="strokes"><g class="stroke-shape"><path stroke-linecap="round" stroke-linejoin="round" rx="0" ry="0" d="M21.333,4.173C23.693,4.778,25.344,6.904,25.344,9.340C25.344,11.776,23.693,13.902,21.333,14.507" style="fill: none; stroke-width: 3; stroke: rgb(69, 174, 239); stroke-opacity: 1;"/></g></g></g></g></svg>