<svg xmlns:xlink="http://www.w3.org/1999/xlink" width="35" xmlns="http://www.w3.org/2000/svg" height="35" id="screenshot-a932206b-28e7-8055-8003-92c7f8a681be" viewBox="-1.5 -1.5 35 35" style="-webkit-print-color-adjust: exact;" fill="none" version="1.1"><g id="shape-a932206b-28e7-8055-8003-92c7f8a681be" width="24" class="feather feather-eye" height="24" rx="0" ry="0" style="fill: rgb(0, 0, 0);"><g id="shape-a932206b-28e7-8055-8003-92c7f8a681c0"><g class="fills" id="fills-a932206b-28e7-8055-8003-92c7f8a681c0"><path fill="none" stroke-linecap="round" stroke-linejoin="round" rx="0" ry="0" d="M1.333,16.000C1.333,16.000,6.667,5.333,16.000,5.333C25.333,5.333,30.667,16.000,30.667,16.000C30.667,16.000,25.333,26.667,16.000,26.667C6.667,26.667,1.333,16.000,1.333,16.000ZZ" style="fill: none;"/></g><g id="strokes-a932206b-28e7-8055-8003-92c7f8a681c0" class="strokes"><g class="stroke-shape"><path stroke-linecap="round" stroke-linejoin="round" rx="0" ry="0" d="M1.333,16.000C1.333,16.000,6.667,5.333,16.000,5.333C25.333,5.333,30.667,16.000,30.667,16.000C30.667,16.000,25.333,26.667,16.000,26.667C6.667,26.667,1.333,16.000,1.333,16.000ZZ" style="fill: none; stroke-width: 3; stroke: rgb(57, 20, 74); stroke-opacity: 1;"/></g></g></g><g id="shape-a932206b-28e7-8055-8003-92c7f8a681c1"><g class="fills" id="fills-a932206b-28e7-8055-8003-92c7f8a681c1"><ellipse cy="16" stroke-linejoin="round" transform="matrix(1.000000, 0.000000, 0.000000, 1.000000, 0.000000, 0.000000)" style="fill: none;" ry="4" fill="none" stroke-linecap="round" rx="4" cx="16"/></g><g id="strokes-a932206b-28e7-8055-8003-92c7f8a681c1" class="strokes"><g class="stroke-shape"><ellipse stroke-linecap="round" stroke-linejoin="round" rx="4" ry="4" cx="16" cy="16" transform="matrix(1.000000, 0.000000, 0.000000, 1.000000, 0.000000, 0.000000)" style="fill: none; stroke-width: 3; stroke: rgb(57, 20, 74); stroke-opacity: 1;"/></g></g></g></g></svg>